<svg xmlns="http://www.w3.org/2000/svg" xmlns:xlink="http://www.w3.org/1999/xlink" width="500" zoomAndPan="magnify" viewBox="0 0 375 374.999991" height="500" preserveAspectRatio="xMidYMid meet" version="1.0"><defs><clipPath id="7603cc1057"><path d="M 77.429688 77.429688 L 297.929688 77.429688 L 297.929688 297.929688 L 77.429688 297.929688 Z M 77.429688 77.429688 " clip-rule="nonzero"/></clipPath></defs><g clip-path="url(#7603cc1057)"><path fill="#ffffff" d="M 292.242188 77.429688 L 82.757812 77.429688 C 79.894531 77.429688 77.566406 79.757812 77.566406 82.621094 L 77.566406 292.390625 C 77.566406 295.25 79.894531 297.578125 82.757812 297.578125 L 292.242188 297.578125 C 295.105469 297.578125 297.433594 295.25 297.433594 292.390625 L 297.433594 82.621094 C 297.433594 79.757812 295.105469 77.429688 292.242188 77.429688 Z M 116.828125 263.507812 L 218.914062 263.511719 L 218.914062 287.199219 L 87.949219 287.199219 L 87.949219 87.8125 L 111.636719 87.8125 L 111.636719 258.316406 C 111.636719 261.179688 113.964844 263.507812 116.828125 263.507812 Z M 150.898438 229.441406 L 218.914062 229.441406 L 218.914062 253.128906 L 122.019531 253.128906 L 122.019531 87.8125 L 145.707031 87.8125 L 145.707031 224.25 C 145.707031 227.113281 148.035156 229.441406 150.898438 229.441406 Z M 156.089844 219.058594 L 156.089844 155.953125 L 218.914062 155.953125 L 218.914062 219.058594 Z M 224.105469 145.570312 L 156.089844 145.570312 L 156.089844 121.882812 L 252.984375 121.882812 L 252.984375 287.199219 L 229.292969 287.199219 L 229.292969 150.761719 C 229.292969 147.898438 226.964844 145.570312 224.105469 145.570312 Z M 258.171875 111.503906 L 156.089844 111.5 L 156.089844 87.8125 L 287.050781 87.8125 L 287.050781 287.199219 L 263.363281 287.199219 L 263.363281 116.691406 C 263.363281 113.832031 261.035156 111.503906 258.171875 111.503906 Z M 258.171875 111.503906 " fill-opacity="1" fill-rule="nonzero"/></g></svg>